HIERARCHY
ROOT Hips
{
	OFFSET 0.00000 0.00000 0.00000
	CHANNELS 6 Xposition Yposition Zposition Zrotation Yrotation Xrotation 
	JOINT LHipJoint
	{
		OFFSET 0 0 0
		CHANNELS 3 Zrotation Yrotation Xrotation
		JOINT LeftUpLeg
		{
			OFFSET 1.62964 -1.40469 0.78906
			CHANNELS 3 Zrotation Yrotation Xrotation
			JOINT LeftLeg
			{
				OFFSET 2.29640 -6.30932 0.00000
				CHANNELS 3 Zrotation Yrotation Xrotation
				JOINT LeftFoot
				{
					OFFSET 2.29451 -6.30412 0.00000
					CHANNELS 3 Zrotation Yrotation Xrotation
					JOINT LeftToeBase
					{
						OFFSET 0.03611 -0.09921 1.56387
						CHANNELS 3 Zrotation Yrotation Xrotation
						End Site
						{
							OFFSET 0.00000 -0.00000 0.80291
						}
					}
				}
			}
		}
	}
	JOINT RHipJoint
	{
		OFFSET 0 0 0
		CHANNELS 3 Zrotation Yrotation Xrotation
		JOINT RightUpLeg
		{
			OFFSET -1.73712 -1.40469 0.78906
			CHANNELS 3 Zrotation Yrotation Xrotation
			JOINT RightLeg
			{
				OFFSET -2.28137 -6.26801 0.00000
				CHANNELS 3 Zrotation Yrotation Xrotation
				JOINT RightFoot
				{
					OFFSET -2.28681 -6.28298 0.00000
					CHANNELS 3 Zrotation Yrotation Xrotation
					JOINT RightToeBase
					{
						OFFSET -0.15927 -0.43759 1.61103
						CHANNELS 3 Zrotation Yrotation Xrotation
						End Site
						{
							OFFSET -0.00000 -0.00000 0.84630
						}
					}
				}
			}
		}
	}
	JOINT LowerBack
	{
		OFFSET 0 0 0
		CHANNELS 3 Zrotation Yrotation Xrotation
		JOINT Spine
		{
			OFFSET -0.04227 2.04338 -0.00225
			CHANNELS 3 Zrotation Yrotation Xrotation
			JOINT Spine1
			{
				OFFSET -0.02148 2.04482 -0.04273
				CHANNELS 3 Zrotation Yrotation Xrotation
				JOINT Neck
				{
					OFFSET 0 0 0
					CHANNELS 3 Zrotation Yrotation Xrotation
					JOINT Neck1
					{
						OFFSET 0.09180 1.44629 0.19359
						CHANNELS 3 Zrotation Yrotation Xrotation
						JOINT Head
						{
							OFFSET 0.00887 1.40645 0.14750
							CHANNELS 3 Zrotation Yrotation Xrotation
							End Site
							{
								OFFSET -0.00669 1.50671 0.03707
							}
						}
					}
				}
				JOINT LeftShoulder
				{
					OFFSET 0 0 0
					CHANNELS 3 Zrotation Yrotation Xrotation
					JOINT LeftArm
					{
						OFFSET 2.17674 1.86763 -0.06520
						CHANNELS 3 Zrotation Yrotation Xrotation
						JOINT LeftForeArm
						{
							OFFSET 4.65776 -0.00000 0.00000
							CHANNELS 3 Zrotation Yrotation Xrotation
							JOINT LeftHand
							{
								OFFSET 3.55539 -0.00000 0.00000
								CHANNELS 3 Zrotation Yrotation Xrotation
								JOINT LeftFingerBase
								{
									OFFSET 0 0 0
									CHANNELS 3 Zrotation Yrotation Xrotation
									JOINT LeftHandIndex1
									{
										OFFSET 0.70726 -0.00000 0.00000
										CHANNELS 3 Zrotation Yrotation Xrotation
										End Site
										{
											OFFSET 0.57022 -0.00000 0.00000
										}
									}
								}
								JOINT LThumb
								{
									OFFSET 0 0 0
									CHANNELS 3 Zrotation Yrotation Xrotation
									End Site
									{
										OFFSET 0.57892 -0.00000 0.57892
									}
								}
							}
						}
					}
				}
				JOINT RightShoulder
				{
					OFFSET 0 0 0
					CHANNELS 3 Zrotation Yrotation Xrotation
					JOINT RightArm
					{
						OFFSET -2.80694 1.55459 -0.32496
						CHANNELS 3 Zrotation Yrotation Xrotation
						JOINT RightForeArm
						{
							OFFSET -4.71925 -0.00000 -0.00000
							CHANNELS 3 Zrotation Yrotation Xrotation
							JOINT RightHand
							{
								OFFSET -3.56990 -0.00000 0.00000
								CHANNELS 3 Zrotation Yrotation Xrotation
								JOINT RightFingerBase
								{
									OFFSET 0 0 0
									CHANNELS 3 Zrotation Yrotation Xrotation
									JOINT RightHandIndex1
									{
										OFFSET -0.50776 -0.00000 0.00000
										CHANNELS 3 Zrotation Yrotation Xrotation
										End Site
										{
											OFFSET -0.40937 -0.00000 0.00000
										}
									}
								}
								JOINT RThumb
								{
									OFFSET 0 0 0
									CHANNELS 3 Zrotation Yrotation Xrotation
									End Site
									{
										OFFSET -0.41562 -0.00000 0.41562
									}
								}
							}
						}
					}
				}
			}
		}
	}
}
MOTION
Frames: 12
Frame Time: .0083333
8.1319 16.3017 31.1987 0 0 0 0 0 0 -21 0 0 0 0 0 0 0 0 0 0 0 0 0 0 21 0 0 0 0 0 0 0 0 0 0 0 0 0 0 0 0 0 0 0 0 0 0 -16 0 0 21 0 0 11 0 0 0 -8 0 0 0 0 0 0 0 0 0 0 0 0 0 0 0 0 0 0 0 0 8 0 0 0 0 0 0 0 0 0 0 0 0 0 0 0 0 0
8.1319 16.3017 31.1987 178.1130 -2.2001 -152.1340 0.0000 0.0000 0.0000 -16.9570 -18.6633 -20.4953 0.1822 2.7496 7.5822 0.2471 2.1225 -10.4165 5.0805 -13.4739 -41.1694 0.0000 0.0000 0.0000 16.9651 14.8202 -19.4804 -0.0584 -1.5591 4.2885 -1.0113 -5.4156 -21.6892 -2.8071 10.3760 -30.2030 -6.8499 -1.3419 -29.6038 -0.4701 -0.0294 -1.1456 3.1345 -0.7128 14.3020 1.3357 -2.3957 -7.6423 3.5174 -3.7425 6.7047 0.7161 -1.7059 3.5799 0.0000 -0.0000 0.0000 -85.6509 -1.8209 17.1548 9.8693 -16.5349 -1.4375 -0.0000 -0.0000 5.2991 22.1385 -10.8331 -4.3726 -7.1250 0.0000 -0.0000 -3.4809 18.3198 2.2145 0.0000 -0.0000 0.0000 92.5862 -4.7464 5.7508 -17.4153 27.4020 -4.2767 0.0000 0.0000 0.6714 -12.3098 -52.3130 9.7976 7.1250 -0.0000 -0.0000 64.0717 -75.6299 -50.1115
8.1325 16.3046 31.1975 178.1550 -2.2247 -152.1390 0.0000 0.0000 0.0000 -16.9129 -18.5697 -20.5530 0.1844 2.7658 7.6274 0.2468 2.0475 -10.3647 5.1144 -13.5115 -41.3145 0.0000 0.0000 0.0000 17.0498 14.6353 -19.5750 -0.0606 -1.5881 4.3687 -1.0275 -5.1723 -21.6804 -2.8006 10.3650 -30.1669 -6.8305 -1.3672 -29.5781 -0.4164 -0.0712 -1.1216 3.1672 -0.7302 14.3236 1.3469 -2.4635 -7.8161 3.4470 -3.8353 6.8084 0.6834 -1.7498 3.6493 -0.0000 0.0000 0.0000 -85.7408 -1.8748 16.9667 9.8348 -16.4808 -1.4277 -0.0000 -0.0000 5.3876 22.0062 -10.6120 -4.2566 -7.1250 0.0000 -0.0000 -3.5672 18.5676 2.2500 -0.0000 0.0000 0.0000 92.5108 -4.6681 5.6884 -17.3090 27.2634 -4.2279 0.0000 0.0000 0.7344 -12.2966 -52.3676 9.7940 7.1250 -0.0000 -0.0000 64.2825 -75.6433 -50.3155
8.1324 16.3027 31.1995 178.1310 -2.1837 -151.9880 0.0000 0.0000 0.0000 -16.9032 -18.5166 -20.8332 0.1895 2.8032 7.7314 0.2473 1.9889 -10.3392 5.0732 -13.4658 -41.1380 0.0000 0.0000 0.0000 16.9118 15.0047 -19.6630 -0.0621 -1.6076 4.4223 -1.0303 -5.3602 -21.8219 -2.7145 10.2180 -29.6855 -6.8687 -1.3694 -29.6710 -0.4059 -0.0661 -1.1568 3.1992 -0.7338 14.3236 1.2886 -2.5477 -7.8124 3.4992 -3.9449 6.7776 0.7048 -1.8040 3.6420 -0.0000 0.0000 0.0000 -85.7951 -1.9523 16.7413 9.7571 -16.3588 -1.4058 -0.0000 -0.0000 5.6708 21.7322 -10.6901 -4.2287 -7.1250 0.0000 -0.0000 -3.7631 18.5070 2.3792 -0.0000 0.0000 0.0000 92.4508 -4.7165 5.7106 -17.2810 27.2267 -4.2151 0.0000 0.0000 0.6764 -12.2959 -52.5066 9.8114 7.1250 -0.0000 -0.0000 64.8044 -75.6890 -50.8352
8.1334 16.3073 31.1997 178.1570 -2.2280 -151.9950 0.0000 0.0000 0.0000 -16.8399 -18.5946 -20.8334 0.1903 2.8094 7.7484 0.2403 2.1294 -10.2935 5.0788 -13.4720 -41.1619 0.0000 0.0000 0.0000 16.9006 15.3237 -19.5116 -0.0610 -1.5932 4.3827 -1.0150 -5.7217 -21.9188 -2.6727 10.1453 -29.4486 -6.8249 -1.3528 -29.5654 -0.4259 -0.0687 -1.1948 3.1538 -0.7286 14.2319 1.2259 -2.5693 -7.7116 3.6480 -3.9736 6.6383 0.7650 -1.8183 3.5795 -0.0000 0.0000 0.0000 -85.7283 -1.9795 16.6738 9.6727 -16.2260 -1.3821 -0.0000 -0.0000 5.8448 21.6641 -10.8760 -4.2863 -7.1250 0.0000 -0.0000 -3.8167 18.3142 2.4294 -0.0000 0.0000 0.0000 92.4995 -4.8352 5.6898 -17.3026 27.2549 -4.2250 0.0000 0.0000 0.6705 -12.0779 -52.5187 9.6371 7.1250 -0.0000 -0.0000 64.9540 -75.6094 -50.8847
8.1359 16.3094 31.1997 178.2790 -2.2958 -151.8910 0.0000 0.0000 0.0000 -16.5771 -18.7650 -20.9402 0.1904 2.8101 7.7504 0.2368 2.2318 -10.2925 5.0277 -13.4149 -40.9422 0.0000 0.0000 0.0000 17.0854 15.1279 -19.7434 -0.0628 -1.6168 4.4477 -1.0215 -5.5206 -21.8462 -2.7185 10.2248 -29.7080 -6.6957 -1.3360 -29.6101 -0.4024 -0.0983 -1.2354 3.0968 -0.7353 14.2098 1.2849 -2.6264 -7.7703 3.6021 -4.0574 6.7052 0.7338 -1.8584 3.6128 0.0000 -0.0000 0.0000 -85.6894 -2.0193 16.5449 9.6017 -16.1142 -1.3623 -0.0000 -0.0000 5.9908 21.7878 -10.9603 -4.3461 -7.1250 0.0000 -0.0000 -3.7322 18.2137 2.3837 0.0000 -0.0000 0.0000 92.5089 -4.8657 5.6948 -17.2629 27.2031 -4.2068 0.0000 0.0000 0.6817 -11.9017 -52.3811 9.4778 7.1250 -0.0000 -0.0000 64.5276 -75.4964 -50.3786
8.1385 16.3073 31.1986 178.2700 -2.2903 -151.7440 0.0000 0.0000 0.0000 -16.4941 -18.9215 -21.0702 0.1915 2.8183 7.7732 0.2413 2.2220 -10.3687 4.8317 -13.1917 -40.0903 0.0000 0.0000 0.0000 17.0713 14.9940 -20.0680 -0.0672 -1.6728 4.6023 -1.0315 -5.2882 -21.7875 -2.7046 10.2007 -29.6291 -6.7280 -1.3596 -29.7499 -0.3726 -0.1205 -1.2547 3.1355 -0.7523 14.2526 1.1955 -2.7228 -7.7434 3.6794 -4.1847 6.7201 0.7682 -1.9210 3.6191 -0.0000 -0.0000 0.0000 -85.7566 -2.0586 16.3311 9.5750 -16.0721 -1.3549 -0.0000 -0.0000 6.1492 21.7308 -10.9926 -4.3461 -7.1250 0.0000 -0.0000 -3.7733 18.1841 2.4125 -0.0000 -0.0000 0.0000 92.4253 -4.7929 5.6660 -17.1453 27.0489 -4.1532 0.0000 0.0000 0.7407 -12.0860 -52.4060 9.6293 7.1250 -0.0000 -0.0000 64.5292 -75.5753 -50.4649
8.1410 16.3106 31.1941 178.1480 -2.2560 -151.9070 0.0000 0.0000 0.0000 -16.7072 -18.9328 -20.8153 0.1898 2.8058 7.7385 0.2401 2.2728 -10.3792 4.6884 -13.0240 -39.4585 0.0000 0.0000 0.0000 16.9422 15.0312 -19.8607 -0.0675 -1.6757 4.6103 -1.0302 -5.4095 -21.8530 -2.6853 10.1672 -29.5200 -6.8851 -1.4006 -29.5663 -0.3700 -0.1274 -1.2397 3.2235 -0.7603 14.1856 1.0473 -2.8091 -7.6382 3.7970 -4.2949 6.7395 0.8282 -1.9763 3.6145 -0.0000 0.0000 0.0000 -85.8209 -1.9888 16.3391 9.5964 -16.1058 -1.3608 -0.0000 -0.0000 6.0823 21.6812 -10.8649 -4.2857 -7.1250 0.0000 -0.0000 -3.8044 18.3244 2.4207 -0.0000 0.0000 0.0000 92.3476 -4.8579 5.7080 -17.0979 26.9866 -4.1317 0.0000 0.0000 0.7009 -12.4348 -52.6230 9.9386 7.1250 -0.0000 -0.0000 65.1798 -75.7800 -51.2724
8.1445 16.3050 31.1931 178.1380 -2.1668 -151.7240 0.0000 0.0000 0.0000 -16.6763 -18.8182 -21.1222 0.1936 2.8336 7.8158 0.2359 2.2490 -10.2852 4.7584 -13.1065 -39.7683 0.0000 0.0000 0.0000 16.8607 15.1878 -20.0066 -0.0652 -1.6475 4.5325 -1.0193 -5.4914 -21.8086 -2.7345 10.2523 -29.7978 -6.9684 -1.4031 -29.7088 -0.3365 -0.1192 -1.3253 3.3044 -0.7678 14.1483 0.8991 -2.8325 -7.4833 3.8765 -4.3143 6.7317 0.8816 -1.9890 3.5883 0.0000 -0.0000 0.0000 -85.8837 -1.8687 16.3818 9.6101 -16.1275 -1.3647 -0.0000 -0.0000 6.0357 21.8533 -10.6351 -4.2331 -7.1250 0.0000 -0.0000 -3.6760 18.5556 2.3199 0.0000 -0.0000 0.0000 92.2790 -5.0482 5.8113 -17.1335 27.0335 -4.1478 0.0000 0.0000 0.5806 -12.5856 -52.7910 10.0826 7.1250 -0.0000 -0.0000 65.7539 -75.8907 -51.9123
8.1451 16.3066 31.1865 178.1560 -2.1793 -151.7830 0.0000 0.0000 0.0000 -16.6833 -18.8204 -21.0000 0.1920 2.8219 7.7832 0.2350 2.3283 -10.3182 4.9937 -13.3767 -40.7956 0.0000 0.0000 0.0000 16.9233 15.1467 -19.8054 -0.0597 -1.5759 4.3351 -1.0087 -5.5403 -21.7457 -2.7867 10.3414 -30.0895 -6.9593 -1.3932 -29.6627 -0.3228 -0.1157 -1.3399 3.3164 -0.7644 14.1104 0.6787 -2.7792 -7.2729 4.1159 -4.2332 6.6042 1.0069 -1.9510 3.5147 -0.0000 0.0000 0.0000 -85.9194 -1.7869 16.2281 9.6033 -16.1167 -1.3628 -0.0000 -0.0000 6.2254 21.8890 -10.7121 -4.2709 -7.1250 0.0000 -0.0000 -3.6531 18.4704 2.3123 -0.0000 0.0000 0.0000 92.2700 -5.1429 5.7538 -17.1245 27.0216 -4.1438 0.0000 0.0000 0.5571 -12.5950 -52.7515 10.0851 7.1250 -0.0000 -0.0000 65.5980 -75.8821 -51.7613
8.1478 16.3066 31.1863 178.1150 -2.2365 -151.7100 0.0000 0.0000 0.0000 -16.7031 -18.7812 -21.0981 0.1916 2.8190 7.7754 0.2333 2.2840 -10.2582 5.1602 -13.5620 -41.5105 0.0000 0.0000 0.0000 16.9521 14.8339 -20.0193 -0.0617 -1.6034 4.4107 -1.0341 -5.2185 -21.7674 -2.7893 10.3458 -30.1041 -6.9746 -1.3888 -29.6815 -0.3701 -0.1041 -1.3674 3.2766 -0.7601 14.0847 0.6325 -2.7505 -7.2337 4.2215 -4.2015 6.6097 1.0521 -1.9340 3.5130 -0.0000 0.0000 0.0000 -85.8561 -1.7746 16.1659 9.6133 -16.1325 -1.3655 -0.0000 -0.0000 6.3581 21.8014 -10.9967 -4.3633 -7.1250 0.0000 -0.0000 -3.7237 18.1737 2.3816 -0.0000 0.0000 0.0000 92.3361 -5.1653 5.6655 -17.1051 26.9961 -4.1349 0.0000 0.0000 0.5422 -12.6332 -52.6540 10.1031 7.1250 -0.0000 -0.0000 65.2065 -75.8662 -51.3891
8.1430 16.3059 31.1781 178.1400 -2.1613 -151.7850 0.0000 0.0000 0.0000 -16.7281 -18.8762 -20.8416 0.1827 2.7527 7.5911 0.2214 2.5900 -10.2324 5.1830 -13.5869 -41.6072 0.0000 0.0000 0.0000 17.0095 14.3514 -20.1479 -0.0645 -1.6387 4.5081 -1.0589 -4.6822 -21.6601 -2.7535 10.2850 -29.9046 -6.8426 -1.2741 -29.7091 -0.4647 0.0283 -1.3030 3.1548 -0.6906 14.1600 0.8088 -2.7834 -7.3362 4.1148 -4.2668 6.7723 0.9806 -1.9625 3.5830 -0.0000 -0.0000 0.0000 -85.7327 -1.8346 16.3043 9.6306 -16.1597 -1.3704 -0.0000 -0.0000 6.3564 21.7440 -11.3587 -4.4914 -7.1250 0.0000 -0.0000 -3.7759 17.7922 2.4468 -0.0000 -0.0000 0.0000 92.4329 -5.1207 5.5256 -17.0755 26.9572 -4.1215 0.0000 0.0000 0.5521 -12.7265 -52.7286 10.1886 7.1250 -0.0000 -0.0000 65.4510 -75.9256 -51.6746
